<svg viewBox="1.6 0.8 47 48" version="1.1" xmlns="http://www.w3.org/2000/svg"><g stroke="none" stroke-width="1" fill="none" fill-rule="evenodd"><g transform="translate(1.000000, 1.000000)" fill="#000000" fill-rule="nonzero"><path d="M32.77,17.06 C32.0502878,17.0527634 31.3479436,17.2810253 30.77,17.71 L30.77,14.65 C30.7669786,14.0324081 30.5229956,13.4403904 30.09,13 C29.4455945,12.4195179 28.5959018,12.1206853 27.73,12.17 C27.014111,12.1569507 26.3129773,12.3743021 25.73,12.79 L25.73,12 C25.69435,11.3532538 25.3622415,10.7591485 24.83,10.39 C24.2269187,9.94848296 23.4973968,9.71349274 22.75,9.72 C21.2058036,9.57367547 19.8281279,10.6891484 19.65,12.23 L19.65,12.58 C19.0675757,12.3116667 18.4310014,12.1816139 17.79,12.2 C16.18,12.2 14.79,13.28 14.79,14.57 L14.79,22.85 C13.06,23.85 12.19,25.65 12.19,28.28 C12.19,30.91 12.9,32.9 14.32,34.16 C15.3378502,35.0639219 16.6394978,35.5838735 18,35.63 L18,47.27 C18,47.6068937 18.2731063,47.8800821 18.61,47.8800821 C18.7735077,47.8826808 18.931245,47.8195986 19.0478142,47.7049095 C19.1643834,47.5902205 19.230022,47.4335297 19.23,47.27 L19.23,35 C19.2285507,34.8237911 19.1521893,34.6565232 19.02,34.54 C18.8896839,34.4221251 18.7142455,34.3673006 18.54,34.39 C17.3159942,34.4650232 16.1098312,34.067741 15.17,33.28 C14.02,32.28 13.45,30.58 13.45,28.28 C13.45,25.98 14.14,24.58 15.56,23.85 C16.8836461,23.3238078 18.3094765,23.1049753 19.73,23.21 L19.93,23.21 C21.1145625,23.1274372 22.3047945,23.2252183 23.46,23.5 C24,23.7 24.46,24.04 24.46,25.25 C24.467943,25.5833315 24.3200443,25.9013138 24.06,26.11 C22.72,27.29 18.71,27.03 17.28,26.83 C16.9438417,26.7885353 16.6366193,27.0245177 16.59,27.36 C16.5485353,27.6961583 16.7845177,28.0033807 17.12,28.05 C17.7,28.13 22.86,28.79 24.87,27.05 C25.0661487,26.8765319 25.2347467,26.6742142 25.37,26.45 C26.0252394,26.8732893 26.7899491,27.0957503 27.57,27.09 C28.284755,27.0932969 28.9903185,26.9288937 29.63,26.61 L29.97,26.39 C30.382558,27.5586216 31.4712377,28.3532783 32.71,28.39 C33.3396937,28.3756659 33.9514575,28.1775379 34.47,27.82 L34.47,32.5 C34.1686438,33.5984755 33.1366688,34.3338099 32,34.26 C31.6575835,34.26 31.38,34.5375835 31.38,34.88 L31.38,47.27 C31.379978,47.4335297 31.4456166,47.5902205 31.5621858,47.7049095 C31.678755,47.8195986 31.8364923,47.8826808 32,47.8800821 C32.3368937,47.8800821 32.61,47.6068937 32.61,47.27 L32.61,35.45 C34.1885958,35.2938995 35.4648275,34.0956369 35.7200133,32.53 L35.7200133,19.65 C35.7221478,18.9853143 35.463658,18.3462699 35,17.87 C34.3995454,17.3050505 33.5930554,17.0121102 32.77,17.06 Z M17.77,13.47 C18.2683035,13.4520573 18.7632212,13.558602 19.21,13.78 C19.4661551,13.894623 19.6307608,14.1493699 19.6300026,14.43 L19.6300026,22 C18.4152862,21.9539472 17.2001164,22.0784937 16.02,22.37 L16.02,14.61 C16,14.14 16.7,13.47 17.77,13.47 L17.77,13.47 Z M23.87,22.39 C22.8972016,22.102288 21.8835527,21.9772713 20.87,22.02 L20.87,12.27 C20.87,11.66 21.64,10.99 22.74,10.99 C23.2171521,10.9820444 23.6839532,11.1294553 24.07,11.41 C24.293019,11.5509241 24.4456928,11.7799347 24.49,12.04 L24.49,22.68 C24.2934883,22.5629619 24.0857937,22.4658145 23.87,22.39 L23.87,22.39 Z M29.59,24.88 C29.59,25.48 28.59,25.88 27.59,25.88 C26.59,25.88 25.71,25.41 25.71,24.88 L25.71,14.66 C25.780087,14.5984886 25.8319676,14.5189383 25.86,14.43 C26.2407684,13.7664447 26.9667104,13.3782405 27.73,13.43 C28.2732111,13.3904065 28.8106908,13.5624 29.23,13.91 C29.4477321,14.116809 29.5767793,14.3999959 29.59,14.7 L29.59,24.88 Z M32.73,27.19 C31.16,27.19 30.82,25.08 30.82,24.67 L30.82,19.4 C31.2814241,18.7431555 32.0184928,18.3340823 32.82,18.29 C34.09,18.29 34.54,19.02 34.54,19.65 L34.54,25.87 C34.49,26.49 33.55,27.19 32.73,27.19 L32.73,27.19 Z"></path><path d="M24,5.79000001 C24.1635297,5.79000001 24.3202205,5.72438341 24.4349095,5.60781421 C24.5495986,5.49124502 24.6126808,5.3335077 24.61,5.17 L24.61,0.73 C24.61,0.393106303 24.3368937,0.12 24,0.12 C23.8364923,0.117319184 23.678755,0.180401428 23.5621858,0.295090471 C23.4456166,0.409779515 23.379978,0.56647033 23.38,0.73 L23.38,5.17 C23.38,5.51241654 23.6575835,5.79000001 24,5.79000001 L24,5.79000001 Z"></path><path d="M46.44,23 L42,23 C41.6575835,23 41.38,23.2775835 41.38,23.62 C41.38,23.7835297 41.4456166,23.9402205 41.5621858,24.0549095 C41.678755,24.1695986 41.8364923,24.2326808 42,24.23 L46.43,24.23 C46.5935077,24.2326808 46.751245,24.1695986 46.8678142,24.0549095 C46.9843834,23.9402205 47.05,23.7835297 47.05,23.62 C47.05,23.281451 46.778505,23.0054605 46.44,23 L46.44,23 Z"></path><path d="M6,23 L1.56,23 C1.21758346,23 0.939999994,23.2775835 0.939999994,23.62 C0.939999994,23.7835297 1.00561659,23.9402205 1.12218579,24.0549095 C1.23875498,24.1695986 1.3964923,24.2326808 1.56,24.23 L6,24.23 C6.1635077,24.2326808 6.32124502,24.1695986 6.43781421,24.0549095 C6.55438341,23.9402205 6.62000001,23.7835297 6.62000001,23.62 C6.62000001,23.2775835 6.34241654,23 6,23 L6,23 Z"></path><path d="M39.64,6.47 L36.5,9.6 C36.3081823,9.84681705 36.3301026,10.1978279 36.5511374,10.4188626 C36.7721721,10.6398974 37.123183,10.6618177 37.37,10.47 L40.51,7.33 C40.6260728,7.21704506 40.6915505,7.0619621 40.6915505,6.9 C40.6915505,6.7380379 40.6260728,6.58295494 40.51,6.47 C40.2686746,6.23238153 39.8813254,6.23238153 39.64,6.47 L39.64,6.47 Z"></path><path d="M10.63,36.21 L7.49,39.35 C7.29818227,39.596817 7.32010263,39.9478279 7.54113736,40.1688626 C7.76217208,40.3898974 8.11318295,40.4118177 8.36,40.22 L11.5,37.08 C11.6895247,36.9327079 11.7770035,36.6892541 11.7245701,36.4550206 C11.6721367,36.2207872 11.4892128,36.0378633 11.2549794,35.9854299 C11.0207459,35.9329965 10.7772921,36.0204753 10.63,36.21 L10.63,36.21 Z"></path><path d="M37.37,36.21 C37.123183,36.0181823 36.7721721,36.0401026 36.5511374,36.2611374 C36.3301026,36.4821721 36.3081823,36.833183 36.5,37.08 L39.64,40.22 C39.886817,40.4118177 40.2378279,40.3898974 40.4588626,40.1688626 C40.6798974,39.9478279 40.7018177,39.596817 40.51,39.35 L37.37,36.21 Z"></path><path d="M8.36,6.47 C8.1186746,6.23238153 7.7313254,6.23238153 7.49,6.47 C7.37392716,6.58295494 7.30844952,6.7380379 7.30844952,6.9 C7.30844952,7.0619621 7.37392716,7.21704506 7.49,7.33 L10.63,10.47 C10.7772921,10.6595247 11.0207459,10.7470035 11.2549794,10.6945701 C11.4892128,10.6421367 11.6721367,10.4592128 11.7245701,10.2249794 C11.7770035,9.99074593 11.6895247,9.74729208 11.5,9.6 L8.36,6.47 Z"></path></g></g></svg>