<svg viewBox="7.6 7.5 36.5 33.7" version="1.1" xmlns="http://www.w3.org/2000/svg">
    <g stroke="none" stroke-width="1" fill="none" fill-rule="evenodd">
        <g transform="translate(6.000000, 7.000000)" fill="#000000" fill-rule="nonzero">
            <path d="M37.76,0.88 L37.76,0.88 L37.76,0.73 C37.76,0.73 37.76,0.73 37.76,0.73 L37.76,0.73 C37.76,0.73 37.76,0.73 37.76,0.73 L37.76,0.73 L37.76,0.73 L37.76,0.73 L37.76,0.73 C37.76,0.73 37.76,0.73 37.76,0.73 L37.76,0.73 L37.76,0.73 L37.76,0.73 L37.76,0.73 L37.76,0.73 L37.42,0.73 L22.71,2.12 C22.5588663,2.14048513 22.4202951,2.21510042 22.32,2.33 C22.32,2.33 22.32,2.33 22.32,2.33 C22.2019736,2.45715014 22.1406226,2.62676765 22.15,2.8 L16.55,21.59 L16.55,21.59 C16.55,21.59 16.55,21.59 16.55,21.65 C16.0574698,22.0075022 15.5149856,22.2905374 14.94,22.49 L15.45,19 C15.4806121,18.789678 15.4013578,18.5783333 15.24,18.44 C15.0756021,18.3042146 14.8543774,18.2592198 14.65,18.32 L11,19.6 C10.7989803,19.6724586 10.6483911,19.8418715 10.6,20.05 C10.5539168,20.2566269 10.618262,20.4723724 10.77,20.62 L13,22.82 C11.3679685,23.0034094 9.80749837,23.5911636 8.46,24.53 L8.83,21.53 C8.85587225,21.316046 8.76878431,21.1040058 8.6,20.97 C8.43091992,20.8428387 8.20930308,20.8090327 8.01,20.88 L4.36,22.23 C4.16028688,22.3071102 4.01339893,22.4803626 3.97,22.69 C3.92888189,22.9001797 4.00099772,23.1165271 4.16,23.26 L6.89,25.75 C5.59906486,27.0006664 4.61062867,28.5294934 4,30.22 C3.67068054,31.1068664 3.21606701,31.9420083 2.65,32.7 C2.02180317,33.4202929 1.30241161,34.0556434 0.51,34.59 C0.288640638,34.7429106 0.191158863,35.0211322 0.268675588,35.2787613 C0.346192314,35.5363904 0.581015369,35.7146266 0.85,35.72 C0.970254698,35.7177884 1.0876968,35.6832466 1.19,35.62 C2.08217759,35.0134779 2.89222114,34.2941861 3.6,33.48 C4.24008888,32.6364132 4.75226598,31.7030378 5.12,30.71 C5.56243494,29.5425435 6.17579176,28.4472635 6.94,27.46 L6.64,29.9 C6.61412775,30.113954 6.70121569,30.3259942 6.87,30.46 C6.97797218,30.5456988 7.11216059,30.5916054 7.25,30.59 C7.32255638,30.6050965 7.39744362,30.6050965 7.47,30.59 L11.11,29.24 C11.3005316,29.163098 11.4395475,28.9954443 11.4798427,28.7939685 C11.5201378,28.5924927 11.4562976,28.3842678 11.31,28.24 L8.74,25.9 C10.1220835,24.8016284 11.8001883,24.1401348 13.56,24 L13.64,24 L13.09,27.62 C13.0576794,27.8326037 13.1416106,28.0462466 13.31,28.18 C13.4168485,28.276718 13.5558787,28.3301912 13.7,28.33 C13.7663129,28.3397131 13.8336871,28.3397131 13.9,28.33 L17.58,27 C17.7832278,26.9308352 17.9351389,26.7599352 17.98,26.55 C18.0324889,26.3431943 17.9671952,26.1242683 17.81,25.98 L15.35,23.6 C16.2796607,23.2653138 17.140431,22.7637626 17.89,22.12 L35.89,15.96 L35.89,15.96 C36.0569429,15.9617726 36.2168214,15.8927342 36.33,15.77 L36.33,15.77 C36.4493237,15.6702275 36.5217763,15.5253225 36.53,15.37 L37.76,1 L37.76,1 L37.76,0.88 Z M35.41,14.1 L30.16,9.1 L36.39,2.61 L35.41,14.1 Z M28.41,9.1 L18.41,19.5 L23.06,4 L28.41,9.1 Z M24,3.19 L35.5,1.73 L29.27,8.22 L24,3.19 Z M29.31,10 L34.67,15.14 L19.33,20.36 L29.31,10 Z M14.08,19.84 L13.78,21.84 L12.31,20.43 L14.08,19.84 Z M7.5,22.36 L7.25,24.36 L5.75,23 L7.5,22.36 Z M8,29.05 L8.24,27.05 L9.75,28.42 L8,29.05 Z M14.47,26.8 L14.78,24.8 L16.24,26.21 L14.47,26.8 Z">
            </path>
        </g>
    </g>
</svg>