<svg  viewBox="7.6 8.1 35 33.7" version="1.1" xmlns="http://www.w3.org/2000/svg" role="img">
    <g stroke="none" stroke-width="1" fill="none" fill-rule="evenodd">
        <g transform="translate(7.000000, 8.000000)" fill="#000000" fill-rule="nonzero">
            <path d="M34.21,16.38 C35.1521697,15.4602531 35.4906614,14.0854689 35.0832175,12.8334275 C34.6757735,11.5813862 33.5930179,10.6691096 32.29,10.48 L25.72,9.48 C24.9874855,9.40108121 24.3424686,8.96231971 24,8.31 L21.06,2.31 C20.4814213,1.12540608 19.2783384,0.374100393 17.96,0.374100393 C16.6416616,0.374100393 15.4385787,1.12540608 14.86,2.31 L11.92,8.31 C11.595246,8.96692287 10.9659767,9.42014658 10.24,9.52 L3.67,10.52 C2.3669821,10.7091096 1.28422649,11.6213862 0.876782526,12.8734275 C0.469338564,14.1254689 0.807830332,15.5002531 1.75,16.42 L6.55,21 C7.07740095,21.5219902 7.31638006,22.2687999 7.19,23 L6.07,29.55 C5.84817779,30.843168 6.37907897,32.1502293 7.43981822,32.9224475 C8.50055748,33.6946657 9.90750896,33.7983611 11.07,33.19 L17,30.09 L17,30.09 C17.6517223,29.7502924 18.4282777,29.7502924 19.08,30.09 L24.96,33.18 C26.122491,33.7883611 27.5294425,33.6846657 28.5901818,32.9124475 C29.650921,32.1402293 30.1818222,30.833168 29.96,29.54 L28.81,23 C28.6836199,22.2687999 28.922599,21.5219902 29.45,21 L34.21,16.38 Z M27.6,23.19 L28.72,29.74 C28.877184,30.5761277 28.5335899,31.427304 27.84,31.92 C27.1555868,32.4267074 26.2402164,32.4929257 25.49,32.09 L19.61,29 C18.6020618,28.4701292 17.3979382,28.4701292 16.39,29 L10.51,32.09 C9.75978358,32.4929257 8.84441318,32.4267074 8.16,31.92 C7.46641009,31.427304 7.12281597,30.5761277 7.28,29.74 L8.4,23.19 C8.58684818,22.0678639 8.21344284,20.9252436 7.4,20.13 L2.65,15.5 C2.03335404,14.9108276 1.81483879,14.0172563 2.09,13.21 C2.34055668,12.4002748 3.03963549,11.8105491 3.88,11.7 L10.46,10.7 C11.5864928,10.5402168 12.5604408,9.83223151 13.06,8.81 L16,2.81 C16.3755495,2.04851188 17.1509407,1.56635693 18,1.56635693 C18.8490593,1.56635693 19.6244505,2.04851188 20,2.81 L22.94,8.81 C23.4395592,9.83223151 24.4135072,10.5402168 25.54,10.7 L32.12,11.7 C32.9603645,11.8105491 33.6594433,12.4002748 33.91,13.21 C34.1851612,14.0172563 33.966646,14.9108276 33.35,15.5 L28.59,20.13 C27.7801889,20.9271861 27.4106036,22.0695409 27.6,23.19 L27.6,23.19 Z"></path><path d="M12.36,16 C12.3742527,15.7592221 12.4389871,15.5241338 12.55,15.31 C12.7813394,14.9076833 13.2286004,14.6801295 13.69,14.73 C14.1504324,14.6853204 14.5950341,14.9115213 14.83,15.31 C14.9340802,15.5256586 14.9919825,15.7606738 15,16 C15,16.3368937 15.2731063,16.61 15.61,16.61 C15.7735077,16.6126808 15.931245,16.5495986 16.0478142,16.4349095 C16.1643834,16.3202205 16.230022,16.1635297 16.23,16 C16.2447057,15.3228976 15.9773249,14.670144 15.4918368,14.1979309 C15.0063486,13.7257178 14.3464347,13.4765324 13.67,13.51 C12.9969521,13.4822392 12.3423711,13.7339588 11.8613386,14.2055221 C11.3803062,14.6770854 11.115624,15.3265332 11.13,16 C11.13,16.3368937 11.4031063,16.61 11.74,16.61 C11.9035077,16.6126808 12.061245,16.5495986 12.1778142,16.4349095 C12.2943834,16.3202205 12.360022,16.1635297 12.36,16 L12.36,16 Z"></path><path d="M22.31,13.49 C21.6300026,13.4562114 20.9668134,13.7080693 20.4806653,14.1847223 C19.9945171,14.6613754 19.7296289,15.3194685 19.75,16 C19.749978,16.1635297 19.8156166,16.3202205 19.9321858,16.4349095 C20.048755,16.5495986 20.2064923,16.6126808 20.37,16.61 C20.5352188,16.6154199 20.695563,16.553553 20.814323,16.4385631 C20.9330831,16.3235732 21.0000889,16.1653077 21,16 C21.0129376,15.7697928 21.0742718,15.5449007 21.18,15.34 C21.442194,14.9673387 21.8693443,14.7455898 22.325,14.7455898 C22.7806557,14.7455898 23.207806,14.9673387 23.47,15.34 C23.5810129,15.5541338 23.6457473,15.7892221 23.66,16.03 C23.659978,16.1935297 23.7256166,16.3502205 23.8421858,16.4649095 C23.958755,16.5795986 24.1164923,16.6426808 24.28,16.64 C24.6168937,16.64 24.89,16.3668937 24.89,16.03 C24.9194495,15.3406846 24.6556935,14.6711228 24.1640328,14.1870848 C23.6723722,13.7030467 22.9987712,13.4497842 22.31,13.49 Z"></path><path d="M24.33,19.42 C24.0206578,19.277939 23.6546313,19.4118511 23.51,19.72 C22.4576137,21.7899747 20.3321353,23.0937704 18.01,23.0937704 C15.6878647,23.0937704 13.5623863,21.7899747 12.51,19.72 C12.366406,19.413482 12.001518,19.281406 11.695,19.425 C11.388482,19.568594 11.256406,19.933482 11.4,20.24 C12.6477207,22.7548433 15.2126447,24.3455366 18.02,24.3455366 C20.8273553,24.3455366 23.3922793,22.7548433 24.64,20.24 C24.7807604,19.9279569 24.6419882,19.5608821 24.33,19.42 L24.33,19.42 Z">
            </path>
        </g>
    </g>
</svg>