<?xml version="1.0" encoding="iso-8859-1"?>
<!-- Generator: Adobe Illustrator 19.0.0, SVG Export Plug-In . SVG Version: 6.00 Build 0)  -->
<svg version="1.1" id="Layer_1" xmlns="http://www.w3.org/2000/svg" xmlns:xlink="http://www.w3.org/1999/xlink" x="0px" y="0px"
	 viewBox="0 0 501.257 501.257" style="enable-background:new 0 0 501.257 501.257;" xml:space="preserve">
<g >
	<g >
		<path d="M500.138,189.867c-3.2-7.467-9.6-12.8-17.067-13.867l-147.2-22.4L269.738,11.733C265.471,4.267,259.071,0,250.538,0
			s-16,4.267-19.2,11.733l-66.133,140.8l-147.2,22.4C9.471,176,3.071,181.334,0.938,188.8c-2.133,7.467,0,16,5.333,21.333
			l106.667,110.933L87.338,476.8c-1.067,7.467,2.133,16,8.533,20.267c6.4,4.267,14.933,5.333,22.4,1.067L250.538,425.6l131.2,73.6
			c12.8,4.267,18.133,1.067,22.4-2.133c6.4-4.267,9.6-12.8,8.533-20.267l-25.6-155.733L494.804,211.2
			C501.204,205.867,502.271,197.333,500.138,189.867z M350.804,298.667c-4.267,5.333-6.4,11.733-5.333,18.133l20.267,123.733
			l-104.533-57.6c-3.2-1.067-7.467-2.133-10.667-2.133c-4.267,0-7.467,1.067-10.667,2.133l-104.533,57.6L155.605,316.8
			c1.067-6.4-1.067-13.867-5.333-18.133l-86.4-88.533l118.4-17.067c7.467-1.067,12.8-5.333,16-11.733L250.538,70.4l52.267,109.867
			c3.2,6.4,9.6,10.667,16,11.733l118.4,18.133L350.804,298.667z"/>
	</g>
</g>
<g>
	<g >
		<path d="M202.538,212.267c-11.733,0-21.333,9.6-21.333,21.333s9.6,21.333,21.333,21.333s21.333-9.6,21.333-21.333
			S214.271,212.267,202.538,212.267z"/>
	</g>
</g>
<g>
	<g>
		<path d="M298.538,212.267c-11.733,0-21.333,9.6-21.333,21.333s9.6,21.333,21.333,21.333s20.267-9.6,21.333-21.333
			C319.871,221.867,310.271,212.267,298.538,212.267z"/>
	</g>
</g>
<g>
	<g>
		<path d="M314.538,288c-8.534-7.466-22.4-7.467-29.867,1.067c-9.6,8.533-21.333,13.867-33.067,13.867
			c-12.8,0-24.533-4.267-33.067-13.867c-8.533-8.533-21.333-8.533-29.867-1.067c-8.533,8.533-8.533,21.333-1.067,29.867
			C204.671,336,227.071,345.6,250.538,345.6c23.466,0,45.867-9.6,65.067-27.733C323.071,309.333,323.071,295.466,314.538,288z"/>
	</g>
</g>
<g>
</g>
<g>
</g>
<g>
</g>
<g>
</g>
<g>
</g>
<g>
</g>
<g>
</g>
<g>
</g>
<g>
</g>
<g>
</g>
<g>
</g>
<g>
</g>
<g>
</g>
<g>
</g>
<g>
</g>
</svg>
